#!OML:ASF Y:\EmotionMaleHayes\Project 1\Capture day 1\Session 1\Male1.ASF
:FULLY-SPECIFIED
:DEGREES
1502
root 35.3286 16.6342 15.4833 -49.7539 -69.4149 49.0092
lowerback 4.69161 -2.98732 -17.6388
upperback 0.554039 -5.07892 -3.2298
thorax -0.855564 -2.54187 6.59286
lowerneck -20.8404 -2.54454 1.14388
upperneck 23.8523 -4.91817 2.50984
head 11.2457 -1.87974 -0.0589757
rclavicle 1.73005e-014 -4.05521e-014
rhumerus -51.9597 -9.65482 -76.4411
rradius 32.0974
rwrist -0.242668
rhand -6.56438 -33.0397
rfingers 7.12502
rthumb 19.2897 -62.103
lclavicle 1.73005e-014 -4.05521e-014
lhumerus -16.8384 -24.1399 86.6108
lradius 47.7765
lwrist 4.90543
lhand -14.0102 -20.5849
lfingers 7.12502
lthumb 12.1193 9.04407
rfemur -19.657 -14.6936 11.2387
rtibia 6.65376
rfoot -17.2561 -7.25739
rtoes 15.6444
lfemur 18.8375 8.71193 -37.6569
ltibia 6.34521
lfoot -19.1281 8.07469
ltoes -12.5356
1503
root 35.2345 16.6177 15.5219 -49.758 -69.5013 49.1704
lowerback 4.65686 -3.05599 -17.56
upperback 0.467593 -5.16251 -3.13819
thorax -0.906781 -2.57276 6.65037
lowerneck -20.893 -2.45825 1.33427
upperneck 23.6666 -4.79441 2.33467
head 11.1745 -1.82949 -0.133635
rclavicle -3.54116e-014 -1.94809e-014
rhumerus -52.0687 -9.52758 -76.4394
rradius 32.0929
rwrist -0.167493
rhand -6.49395 -32.6197
rfingers 7.12502
rthumb 19.3575 -61.6762
lclavicle -3.54116e-014 -1.94809e-014
lhumerus -16.9483 -24.0275 87.1137
lradius 47.473
lwrist 4.8201
lhand -12.5438 -20.3618
lfingers 7.12502
lthumb 13.5329 9.17843
rfemur -19.625 -14.0879 11.1219
rtibia 5.86501
rfoot -16.4126 -7.46767
rtoes 15.36
lfemur 18.9834 8.66555 -37.6375
ltibia 6.49497
lfoot -19.4641 7.91753
ltoes -12.1999
1504
root 35.128 16.5947 15.5638 -50.3455 -69.7274 50.0575
lowerback 4.22138 -3.06004 -17.5069
upperback 0.439155 -5.0685 -3.06742
thorax -0.711081 -2.53947 6.66501
lowerneck -20.7646 -2.42419 1.40289
upperneck 23.1707 -4.70521 2.25835
head 10.9597 -1.80012 -0.152172
rclavicle -1.23619e-015 3.55825e-014
rhumerus -52.0935 -9.45114 -76.452
rradius 32.1881
rwrist -0.0975008
rhand -6.41193 -32.4023
rfingers 7.12502
rthumb 19.4363 -61.4508
lclavicle -1.23619e-015 3.55825e-014
lhumerus -16.96 -24.1077 87.6359
lradius 47.1554
lwrist 4.38491
lhand -11.9885 -19.9247
lfingers 7.12502
lthumb 14.0681 9.57918
rfemur -19.953 -13.9954 11.2987
rtibia 5.67727
rfoot -16.3566 -7.2318
rtoes 17.5682
lfemur 19.0908 9.05667 -37.5802
ltibia 6.54737
lfoot -19.5884 7.58381
ltoes -12.8321
1505
root 35.0326 16.584 15.6063 -49.5004 -69.4784 49.2766
lowerback 4.31534 -3.1881 -17.399
upperback 0.464436 -5.24605 -3.01651
thorax -0.697516 -2.62895 6.66729
lowerneck -21.0725 -2.3756 1.26555
upperneck 23.0817 -4.67836 2.58498
head 10.9991 -1.75365 -0.0106159
rclavicle 5.1684e-015 -6.06293e-014
rhumerus -52.0422 -9.41938 -76.5016
rradius 32.1868
rwrist -0.133409
rhand -6.40958 -32.3432
rfingers 7.12502
rthumb 19.4386 -61.3916
lclavicle 5.1684e-015 -6.06293e-014
lhumerus -16.9079 -24.3286 88.1357
lradius 46.7032
lwrist 3.86513
lhand -11.5374 -20.1056
lfingers 7.12502
lthumb 14.5028 9.36753
rfemur -19.8116 -14.0169 10.9561
rtibia 5.52194
rfoot -17.4189 -7.74192
rtoes 16.76
lfemur 19.3256 8.44749 -37.7988
ltibia 6.73191
lfoot -19.5527 7.63972
ltoes -13.4545
1506
root 34.9273 16.5686 15.6533 -49.5463 -69.3399 49.5879
lowerback 4.18776 -3.24404 -17.3931
upperback 0.334492 -5.30747 -3.01772
thorax -0.752109 -2.64743 6.65912
lowerneck -21.3 -2.28816 1.25679
upperneck 23.1493 -4.56817 2.61765
head 11.0681 -1.69464 0.0166476
rclavicle 7.78987e-015 5.50634e-014
rhumerus -52.1452 -9.38747 -76.4729
rradius 32.0837
rwrist -0.0754832
rhand -6.45176 -32.2297
rfingers 7.12502
rthumb 19.398 -61.2821
lclavicle 7.78987e-015 5.50634e-014
lhumerus -17.3471 -24.4564 88.7214
lradius 46.4911
lwrist 3.44128
lhand -10.7131 -20.3502
lfingers 7.12502
lthumb 15.2968 9.0641
rfemur -20.0132 -14.1194 10.6619
rtibia 5.6833
rfoot -16.9131 -7.88519
rtoes 14.5886
lfemur 19.4416 8.39516 -38.0664
ltibia 6.84264
lfoot -19.67 7.30198
ltoes -12.8929
1507
root 34.8257 16.5523 15.6983 -49.7723 -69.1727 50.1118
lowerback 4.04745 -3.33839 -17.4865
upperback 0.204691 -5.42175 -3.01031
thorax -0.777081 -2.69428 6.71142
lowerneck -21.2643 -2.22023 1.41187
upperneck 22.9511 -4.47054 2.48179
head 10.9789 -1.65671 -0.0408994
rclavicle 2.11644e-014 1.47101e-014
rhumerus -52.1083 -9.35424 -76.383
rradius 31.9278
rwrist 0.200717
rhand -6.2329 -32.3295
rfingers 7.12502
rthumb 19.6085 -61.3606
lclavicle 2.11644e-014 1.47101e-014
lhumerus -17.8277 -24.4907 89.2499
lradius 46.4028
lwrist 3.01362
lhand -10.3557 -20.1858
lfingers 7.12502
lthumb 15.6411 9.20187
rfemur -20.1773 -13.95 10.2078
rtibia 5.78866
rfoot -16.5658 -8.44669
rtoes 14.0491
lfemur 19.4613 8.37641 -38.4157
ltibia 7.09859
lfoot -19.9324 7.0735
ltoes -13.21
1508
root 34.7235 16.5378 15.7351 -49.5143 -69.206 49.991
lowerback 4.10605 -3.40784 -17.384
upperback 0.112015 -5.52603 -2.90169
thorax -0.882756 -2.73072 6.78146
lowerneck -21.577 -2.21371 1.37225
upperneck 22.9653 -4.45532 2.49545
head 11.0446 -1.64514 -0.0306328
rclavicle 1.31074e-014 2.3059e-014
rhumerus -52.0899 -9.34522 -76.2508
rradius 31.8577
rwrist 0.404432
rhand -5.92554 -32.4894
rfingers 7.12502
rthumb 19.9039 -61.4901
lclavicle 1.31074e-014 2.3059e-014
lhumerus -18.0531 -24.6193 89.7736
lradius 46.0263
lwrist 2.52308
lhand -10.3684 -20.1104
lfingers 7.12502
lthumb 15.6288 9.27829
rfemur -20.143 -13.5126 10.057
rtibia 6.09668
rfoot -16.5076 -9.20547
rtoes 14.2407
lfemur 19.6273 8.29012 -38.3589
ltibia 7.33369
lfoot -19.9534 7.18639
ltoes -15.5895
1509
root 34.619 16.5259 15.7704 -49.2293 -69.1302 49.846
lowerback 4.13271 -3.4796 -17.3486
upperback 0.0432103 -5.6289 -2.83039
thorax -0.942763 -2.7719 6.84377
lowerneck -21.6799 -2.23718 1.57744
upperneck 22.7632 -4.4782 2.26252
head 10.977 -1.66745 -0.15171
rclavicle 3.51476e-014 5.56597e-015
rhumerus -52.104 -9.4404 -76.1001
rradius 31.8338
rwrist 0.574514
rhand -5.88956 -32.462
rfingers 7.12502
rthumb 19.9385 -61.4592
lclavicle 3.51476e-014 5.56597e-015
lhumerus -18.1633 -24.7896 90.3223
lradius 45.4985
lwrist 2.22613
lhand -9.9776 -19.9352
lfingers 7.12502
lthumb 16.0052 9.42363
rfemur -20.213 -13.2693 9.85092
rtibia 6.82979
rfoot -16.5764 -9.99323
rtoes 14.1354
lfemur 19.7818 8.15114 -38.3659
ltibia 7.57422
lfoot -19.8986 7.27495
ltoes -17.6145
1510
root 34.51 16.5156 15.8125 -49.4756 -68.9203 50.3453
lowerback 3.92713 -3.55569 -17.5186
upperback 0.0040832 -5.69729 -2.81243
thorax -0.8348 -2.81153 6.93721
lowerneck -21.5942 -2.1981 1.60607
upperneck 22.3621 -4.40141 2.26368
head 10.811 -1.63616 -0.139479
rclavicle -1.87727e-014 8.07066e-014
rhumerus -52.0604 -9.38621 -76.0319
rradius 31.873
rwrist 0.592106
rhand -5.95765 -32.5658
rfingers 7.12502
rthumb 19.8731 -61.5697
lclavicle -1.87727e-014 8.07066e-014
lhumerus -18.241 -25.0015 90.8641
lradius 44.9814
lwrist 2.17886
lhand -9.71247 -19.7525
lfingers 7.12502
lthumb 16.2605 9.58561
rfemur -20.3072 -13.2171 9.37335
rtibia 7.6441
rfoot -16.9317 -10.5094
rtoes 15.8126
lfemur 19.7853 8.04861 -38.7651
ltibia 7.86656
lfoot -19.9021 7.36908
ltoes -17.6563
1511
root 34.3983 16.505 15.8562 -49.7995 -69.0599 50.9048
lowerback 3.66438 -3.54969 -17.4368
upperback -0.0186792 -5.62641 -2.72809
thorax -0.726215 -2.78313 6.96295
lowerneck -21.6793 -2.12294 1.5958
upperneck 22.0457 -4.31133 2.41399
head 10.7148 -1.5794 -0.0682647
rclavicle 2.79292e-014 -5.1684e-014
rhumerus -52.0671 -9.24719 -76.0165
rradius 32.076
rwrist 0.493314
rhand -5.96831 -32.8858
rfingers 7.12502
rthumb 19.8628 -61.8908
lclavicle 2.79292e-014 -5.1684e-014
lhumerus -18.3494 -25.3923 91.3667
lradius 44.5322
lwrist 2.03567
lhand -9.91612 -19.77
lfingers 7.12502
lthumb 16.0644 9.58404
rfemur -20.4961 -13.6086 9.40541
rtibia 8.51067
rfoot -17.2269 -10.6276
rtoes 16.5249
lfemur 19.8367 7.99839 -38.9547
ltibia 8.02405
lfoot -20.0225 7.48265
ltoes -16.1794
1512
root 34.2795 16.4983 15.8933 -49.2096 -69.1856 50.3473
lowerback 3.63099 -3.57495 -17.1121
upperback -0.00725883 -5.63071 -2.63744
thorax -0.712827 -2.7864 6.88262
lowerneck -22.316 -2.15236 1.87255
upperneck 22.2729 -4.4067 2.16961
head 10.9051 -1.61545 -0.225436
rclavicle 6.33626e-015 6.99722e-014
rhumerus -52.0142 -9.43658 -75.9104
rradius 31.9847
rwrist 0.720744
rhand -6.28236 -32.7148
rfingers 7.12502
rthumb 19.5609 -61.7508
lclavicle 6.33626e-015 6.99722e-014
lhumerus -18.6289 -25.8699 91.8429
lradius 44.219
lwrist 1.78766
lhand -9.8612 -19.6201
lfingers 7.12502
lthumb 16.1173 9.72967
rfemur -20.3575 -14.3368 9.68527
rtibia 9.12711
rfoot -17.7324 -11.0183
rtoes 20.1236
lfemur 20.2004 7.75003 -38.7104
ltibia 8.12104
lfoot -20.1713 7.32721
ltoes -14.8652
